<svg width="40" height="40" viewBox="0 0 40 40" fill="none" xmlns="http://www.w3.org/2000/svg">
<path d="M20 3.33301C29.205 3.33301 36.6667 10.7947 36.6667 19.9997C36.6667 29.2047 29.205 36.6663 20 36.6663C10.795 36.6663 3.33334 29.2047 3.33334 19.9997C3.33334 10.7947 10.795 3.33301 20 3.33301ZM20 11.6663C19.168 11.6656 18.3405 11.7892 17.545 12.033C18.1598 12.31 18.6983 12.7322 19.114 13.2631C19.5297 13.7941 19.8104 14.418 19.9319 15.0814C20.0533 15.7447 20.012 16.4276 19.8114 17.0714C19.6107 17.7153 19.2569 18.3008 18.7801 18.7777C18.3033 19.2546 17.7179 19.6087 17.0741 19.8095C16.4303 20.0103 15.7475 20.0519 15.0841 19.9306C14.4207 19.8093 13.7967 19.5289 13.2656 19.1133C12.7345 18.6977 12.3122 18.1594 12.035 17.5447C11.5182 19.2212 11.5436 21.0181 12.1078 22.6793C12.6719 24.3405 13.7459 25.7813 15.1768 26.7964C16.6077 27.8115 18.3224 28.3491 20.0767 28.3326C21.831 28.3162 23.5354 27.7465 24.947 26.7047C26.3585 25.6629 27.4053 24.2022 27.9382 22.5307C28.471 20.8592 28.4628 19.0622 27.9145 17.3957C27.3663 15.7291 26.3061 14.2781 24.885 13.2494C23.4639 12.2206 21.7544 11.6667 20 11.6663Z" fill="white"/>
</svg>
